<svg width="59" height="59" viewBox="0 0 59 59" fill="none" xmlns="http://www.w3.org/2000/svg">
<path d="M48.2856 39.3545H42.373V41.3253H48.2856V39.3545Z" fill="#256BB7"/>
<path d="M40.4018 39.3545H34.4893V41.3253H40.4018V39.3545Z" fill="#256BB7"/>
<path d="M32.519 39.3545H26.6064V41.3253H32.519V39.3545Z" fill="#256BB7"/>
<path d="M58.1269 20.437L38.6284 0.935575C38.0747 0.376596 37.3203 0.0624935 36.5334 0.0634789H36.5245C35.7429 0.0638484 34.9942 0.378074 34.4463 0.935575L13.7624 21.6166H2.95626C1.32354 21.6166 0 22.9401 0 24.5728V52.1646C0 53.7973 1.32354 55.1208 2.95626 55.1208H17.5562L20.4967 58.0643C21.0504 58.6232 21.8049 58.9373 22.5917 58.9364H22.5996C23.3815 58.9361 24.1307 58.6219 24.6788 58.0643L27.6252 55.1208H50.2564C51.8891 55.1208 53.2126 53.7973 53.2126 52.1646V29.5334L58.122 24.6241C58.6823 24.0756 58.9986 23.3249 59 22.5409C59.0029 21.7508 58.6883 20.9928 58.1269 20.437ZM45.5914 10.6883L34.6631 21.6166H26.2949L41.4073 6.50418L45.5914 10.6883ZM35.8416 2.32502C36.2165 1.94107 36.8316 1.93368 37.2157 2.30863C37.2212 2.31405 37.2268 2.31947 37.2321 2.32502L40.0139 5.1108L23.5072 21.6166H16.5491L35.8416 2.32502ZM23.2835 56.6748C23.1033 56.863 22.8542 56.9697 22.5937 56.9704C22.3296 56.9698 22.0768 56.8634 21.8921 56.6748L20.344 55.1208H24.8385L23.2835 56.6748ZM51.2418 52.1646C51.2418 52.7088 50.8005 53.15 50.2564 53.15H2.95626C2.41206 53.15 1.97084 52.7088 1.97084 52.1646V38.3687H51.2418V52.1646ZM51.2418 36.3979H1.97084V30.4853H51.2418V36.3979ZM51.2418 28.5145H1.97084V24.5728C1.97084 24.0286 2.41206 23.5874 2.95626 23.5874H50.2564C50.8005 23.5874 51.2418 24.0286 51.2418 24.5728V28.5145ZM56.7335 23.2258L53.2126 26.7467V24.5728C53.2126 22.9401 51.8891 21.6166 50.2564 21.6166H37.4459L46.9808 12.0816L56.7296 21.8304C56.9189 22.0159 57.0254 22.2699 57.0252 22.535C57.0249 22.7951 56.9198 23.0442 56.7335 23.2258Z" fill="#256BB7"/>
<path d="M9.45175 51.2061C9.59562 51.0817 9.73038 50.9469 9.85479 50.803C11.1579 52.3208 13.3969 52.6092 15.042 51.4711C16.1038 50.7288 16.7411 49.5188 16.7527 48.2232C16.7527 46.0463 14.988 44.2815 12.811 44.2815C12.6154 44.2788 12.4201 44.2953 12.2277 44.3308L12.2021 44.3377C12.1922 44.3377 12.1823 44.3377 12.1735 44.3377C11.2707 44.4877 10.4497 44.951 9.85479 45.6463C8.43085 43.9997 5.94156 43.8193 4.29505 45.2433C2.64841 46.6672 2.46796 49.1565 3.89201 50.803C5.31594 52.4497 7.80511 52.6301 9.45175 51.2061ZM12.5617 46.2731C12.6439 46.2574 12.7274 46.2505 12.811 46.2524C13.8996 46.2524 14.7819 47.1347 14.7819 48.2232C14.7809 48.6402 14.645 49.0457 14.3946 49.3791C14.3591 49.4274 14.3315 49.4776 14.2911 49.5279C14.2842 49.5358 14.2744 49.5407 14.2665 49.5486C13.8943 49.9596 13.3656 50.1942 12.811 50.194C11.7228 50.1754 10.8555 49.2782 10.8741 48.1899C10.8906 47.2236 11.6053 46.4118 12.5617 46.2731ZM6.89853 46.2524C7.98705 46.2524 8.86937 47.1347 8.86937 48.2232C8.86937 49.3117 7.98705 50.194 6.89853 50.194C5.81001 50.194 4.92769 49.3117 4.92769 48.2232C4.92769 47.1347 5.81001 46.2524 6.89853 46.2524Z" fill="#256BB7"/>
</svg>
