<svg width="86" height="86" viewBox="0 0 86 86" fill="none" xmlns="http://www.w3.org/2000/svg">
<path d="M79.9797 38.8621L77.7526 29.9539C78.3615 29.8245 78.8183 29.2843 78.8183 28.6372V27.2009C78.8183 24.0823 76.2812 21.5453 73.1628 21.5453H63.0189V18.5827C63.0189 17.0481 61.7705 15.7998 60.2359 15.7998H8.52811C6.99355 15.7998 5.7452 17.0481 5.7452 18.5827V43.0003C5.7452 43.7439 6.34804 44.3469 7.09181 44.3469C7.83541 44.3469 8.43841 43.7441 8.43841 43.0003V18.5827C8.43841 18.5332 8.47856 18.493 8.52811 18.493H60.2358C60.2853 18.493 60.3255 18.5332 60.3255 18.5827V43.0007C60.3255 43.7443 60.9283 44.3473 61.6721 44.3473C62.4157 44.3473 63.0187 43.7444 63.0187 43.0007V41.4742H78.9033C78.9047 41.4742 78.9057 41.4745 78.9068 41.4745C78.9082 41.4745 78.9094 41.4743 78.9105 41.4743C80.8652 41.4757 82.5249 42.7586 83.095 44.5265H78.9079C78.1643 44.5265 77.5612 45.1293 77.5612 45.8731V48.7457C77.5612 51.0722 79.4539 52.9649 81.7805 52.9649H83.3066V58.8897H79.7857C78.629 55.5499 75.4542 53.1443 71.7262 53.1443C67.9981 53.1443 64.8232 55.5499 63.6667 58.8897H63.0183V48.7455C63.0183 48.0019 62.4155 47.3989 61.6717 47.3989C60.9281 47.3989 60.3251 48.0018 60.3251 48.7455V58.8893H32.3872C31.2306 55.5496 28.0558 53.144 24.3278 53.144C20.5997 53.144 17.4247 55.5496 16.2683 58.8893H8.52811C8.47856 58.8893 8.43841 58.8492 8.43841 58.7996V55.8372H14.2735C15.0171 55.8372 15.6201 55.2343 15.6201 54.4906C15.6201 53.7468 15.0172 53.144 14.2735 53.144H1.34661C0.603008 53.144 0 53.7468 0 54.4906C0 55.2343 0.60284 55.8372 1.34661 55.8372H5.74537V58.7996C5.74537 60.3342 6.99371 61.5825 8.52828 61.5825H15.802C15.8017 61.6124 15.7996 61.6422 15.7996 61.6722C15.7996 66.3747 19.6255 70.2003 24.3278 70.2003C29.03 70.2003 32.8559 66.3747 32.8559 61.6722C32.8559 61.642 32.8538 61.6124 32.8535 61.5825H63.2004C63.2001 61.6124 63.1981 61.6422 63.1981 61.6722C63.1981 66.3747 67.0239 70.2003 71.7262 70.2003C76.4285 70.2003 80.2543 66.3747 80.2543 61.6722C80.2543 61.642 80.2523 61.6124 80.2519 61.5825H84.6532C85.3968 61.5825 85.9998 60.9797 85.9998 60.2359V45.8728C86 42.3266 83.3836 39.3803 79.9797 38.8621ZM63.0189 24.2384H73.1628C74.7963 24.2384 76.1253 25.5674 76.1253 27.2009V27.2905H63.0189V24.2384ZM63.0189 38.7811V29.9836H74.9841L77.1835 38.7811H63.0189ZM24.3278 67.5076C21.1103 67.5076 18.4927 64.8902 18.4927 61.6726C18.4927 58.455 21.1103 55.8375 24.3278 55.8375C27.5452 55.8375 30.1628 58.455 30.1628 61.6726C30.1628 64.8902 27.5452 67.5076 24.3278 67.5076ZM71.7265 67.5076C68.5091 67.5076 65.8914 64.8902 65.8914 61.6726C65.8914 58.455 68.5091 55.8375 71.7265 55.8375C74.944 55.8375 77.5616 58.455 77.5616 61.6726C77.5616 64.8902 74.944 67.5076 71.7265 67.5076ZM83.307 50.2717H81.7808C80.9393 50.2717 80.2546 49.5871 80.2546 48.7455V47.2194H83.3068V50.2717H83.307Z" fill="#256BB7"/>
<path d="M24.3278 58.8896C22.7933 58.8896 21.5449 60.138 21.5449 61.6726C21.5449 63.2071 22.7933 64.4555 24.3278 64.4555C25.8624 64.4555 27.1107 63.2071 27.1107 61.6726C27.1107 60.138 25.8624 58.8896 24.3278 58.8896Z" fill="#256BB7"/>
<path d="M71.7263 58.8896C70.1917 58.8896 68.9434 60.138 68.9434 61.6726C68.9434 63.2071 70.1917 64.4555 71.7263 64.4555C73.2608 64.4555 74.5092 63.2071 74.5092 61.6726C74.5092 60.138 73.2608 58.8896 71.7263 58.8896Z" fill="#256BB7"/>
<path d="M55.9268 53.1445H35.8183C35.0747 53.1445 34.4717 53.7474 34.4717 54.4911C34.4717 55.2349 35.0745 55.8377 35.8183 55.8377H55.9268C56.6704 55.8377 57.2734 55.2349 57.2734 54.4911C57.2734 53.7474 56.6706 53.1445 55.9268 53.1445Z" fill="#256BB7"/>
<path d="M21.4556 47.3994H4.21965C3.47605 47.3994 2.87305 48.0023 2.87305 48.746C2.87305 49.4898 3.47589 50.0926 4.21965 50.0926H21.4556C22.1992 50.0926 22.8022 49.4898 22.8022 48.746C22.8022 48.0023 22.1992 47.3994 21.4556 47.3994Z" fill="#256BB7"/>
<path d="M46.8242 29.1208C46.2985 28.5951 45.4457 28.5951 44.92 29.121L32.9451 41.0957L26.7157 34.8662C26.1898 34.3403 25.3372 34.3403 24.8114 34.8662C24.2855 35.3921 24.2855 36.2446 24.8114 36.7705L31.9931 43.9521C32.256 44.2152 32.6006 44.3465 32.9451 44.3465C33.2897 44.3465 33.6345 44.2152 33.8972 43.9521L46.8241 31.0253C47.35 30.4992 47.35 29.6468 46.8242 29.1208Z" fill="#256BB7"/>
</svg>
