<svg width="69" height="69" viewBox="0 0 69 69" fill="none" xmlns="http://www.w3.org/2000/svg">
<path d="M25.6326 46.3557C25.6326 45.6772 26.2122 45.2671 27.2303 45.2671C28.4179 45.2671 28.7433 45.804 29.1812 45.804C29.6903 45.804 29.9167 45.1539 29.9167 44.8286C29.9167 43.8952 28.0642 43.6973 27.2303 43.6973C25.6042 43.6973 23.7943 44.4185 23.7943 46.5252C23.7943 49.8765 28.3332 49.2258 28.3332 51.3468C28.3332 52.1954 27.5977 52.5771 26.7497 52.5771C25.3073 52.5771 24.9256 51.4884 24.346 51.4884C23.9075 51.4884 23.54 52.0822 23.54 52.4781C23.54 53.2983 24.954 54.2311 26.806 54.2311C28.7575 54.2311 30.1715 53.1851 30.1715 51.1631C30.1715 47.5012 25.6326 48.1087 25.6326 46.3557Z" fill="#256BB7"/>
<path d="M33.9177 46.3557C33.9177 45.6772 34.4973 45.2671 35.5155 45.2671C36.7031 45.2671 37.0284 45.804 37.4664 45.804C37.9755 45.804 38.2018 45.1539 38.2018 44.8286C38.2018 43.8952 36.3493 43.6973 35.5155 43.6973C33.8893 43.6973 32.0795 44.4185 32.0795 46.5252C32.0795 49.8765 36.6183 49.2258 36.6183 51.3468C36.6183 52.1954 35.8829 52.5771 35.0348 52.5771C33.5924 52.5771 33.2108 51.4884 32.6312 51.4884C32.1926 51.4884 31.8252 52.0822 31.8252 52.4781C31.8252 53.2983 33.2392 54.2311 35.0912 54.2311C37.0426 54.2311 38.4566 53.1851 38.4566 51.1631C38.4566 47.5012 33.9177 48.1087 33.9177 46.3557Z" fill="#256BB7"/>
<path d="M45.9076 52.4925H42.4574V44.3339C42.4574 43.9381 41.991 43.7686 41.5383 43.7686C41.0719 43.7686 40.6191 43.9381 40.6191 44.3339V53.5243C40.6191 53.9065 41.015 54.1044 41.4251 54.1044H45.9076C46.2751 54.1044 46.4588 53.6944 46.4588 53.2985C46.4588 52.8884 46.2751 52.4925 45.9076 52.4925Z" fill="#256BB7"/>
<path d="M57.1711 30.1074H55.8066V21.2845C55.8066 9.54834 46.2588 0 34.5221 0C22.7859 0 13.2376 9.54834 13.2376 21.2845V30.1074H11.8736C10.0822 30.1074 8.625 31.5646 8.625 33.3555V65.7518C8.625 67.5427 10.0822 68.9999 11.8736 68.9999H57.1711C58.962 68.9999 60.4196 67.5427 60.4196 65.7518V33.3555C60.4196 31.5646 58.962 30.1074 57.1711 30.1074ZM58.3982 47.7306H54.1725V43.9346H58.3982V47.7306ZM54.1725 49.7521H58.3982V53.5487H54.1725V49.7521ZM15.259 21.2845C15.259 10.6628 23.9003 2.02148 34.5221 2.02148C45.1438 2.02148 53.7851 10.6628 53.7851 21.2845V30.1074H49.9427V21.2845C49.9427 12.7817 43.0249 5.8644 34.5221 5.8644C26.0197 5.8644 19.102 12.7817 19.102 21.2845V30.1074H15.259V21.2845ZM47.9212 30.1074H21.1234V21.2845C21.1234 13.8966 27.1342 7.88588 34.5221 7.88588C41.9105 7.88588 47.9212 13.8966 47.9212 21.2845V30.1074ZM10.6465 49.7521H14.8716V53.5487H10.6465V49.7521ZM14.8716 47.7306H10.6465V43.9346H14.8716V47.7306ZM57.1711 66.9784H11.8736C11.1971 66.9784 10.6465 66.4277 10.6465 65.7513V55.5697H14.8716V57.1589C14.8716 58.3355 15.8292 59.2931 17.0057 59.2931H42.4848C43.0433 59.2931 43.4955 58.8409 43.4955 58.2823C43.4955 57.7238 43.0433 57.2716 42.4848 57.2716H17.0057C16.9436 57.2716 16.8931 57.2211 16.8931 57.1589V40.9755C16.8931 40.9134 16.9436 40.8629 17.0057 40.8629H21.8541C22.4121 40.8629 22.8649 40.4107 22.8649 39.8521C22.8649 39.2936 22.4121 38.8414 21.8541 38.8414H17.0057C15.8292 38.8414 14.8716 39.7989 14.8716 40.9755V41.9131H10.6465V33.3555C10.6465 32.679 11.1971 32.1289 11.8736 32.1289H57.1711C57.8475 32.1289 58.3982 32.679 58.3982 33.3555V41.9131H54.1725V40.9755C54.1725 39.7989 53.2155 38.8414 52.0384 38.8414H26.5593C26.0013 38.8414 25.5486 39.2936 25.5486 39.8521C25.5486 40.4107 26.0013 40.8629 26.5593 40.8629H52.0384C52.1005 40.8629 52.1511 40.9134 52.1511 40.9755V57.1595C52.1511 57.2211 52.1005 57.2716 52.0384 57.2716H47.3185C46.7604 57.2716 46.3077 57.7243 46.3077 58.2823C46.3077 58.8409 46.7604 59.2931 47.3185 59.2931H52.0384C53.2155 59.2931 54.1725 58.336 54.1725 57.1595V55.5702H58.3982V65.7518C58.3982 66.4277 57.8475 66.9784 57.1711 66.9784Z" fill="#256BB7"/>
</svg>
